<svg width="688" height="114" viewBox="0 0 688 114" fill="none" xmlns="http://www.w3.org/2000/svg">
<path d="M226.769 112.317H250.305V55.0127C257.49 48.7331 266.573 45.026 276.112 44.4796C277.662 44.4006 279.215 44.4006 280.765 44.4796V21.7761H276.112C263.195 21.7761 254.547 29.7442 249.894 34.7651V23.0859H226.769V112.317Z" fill="#177FA4"/>
<path d="M317.438 21.7466C304.876 21.7466 296.364 29.278 291.63 34.299V55.0377C298.815 48.7581 307.898 45.051 317.438 44.5046C318.996 44.4257 320.558 44.4257 322.117 44.5046V21.7739L317.438 21.7466Z" fill="#177FA4"/>
<path d="M288.292 55.038H286.951C280.324 55.4656 273.878 57.3777 268.095 60.632V112.315H291.658V55.0107L288.292 55.038Z" fill="#177FA4"/>
<path d="M52.0254 48.0543C52.0254 32.1455 64.3955 21.7761 90.7506 21.7761C117.106 21.7761 129.503 32.1455 129.503 48.0543V87.2123C129.503 103.312 117.106 113.682 90.7506 113.682C64.3955 113.682 52.0254 103.312 52.0254 87.2123V48.0543ZM105.994 50.019C105.994 43.4154 100.794 40.3864 90.7506 40.3864C80.7066 40.3864 75.4521 43.4154 75.4521 50.019V85.2476C75.4521 92.0423 80.6519 95.0985 90.6958 95.0985C100.74 95.0985 105.94 92.0423 105.94 85.2476L105.994 50.019Z" fill="#177FA4"/>
<path d="M45.0197 22.5943H23.7825V0H0V85.5473C0 103.148 8.21028 112.153 34.5927 112.153H44.2261V92.7513H38.2052C28.1065 92.7513 23.7825 89.6951 23.7825 83.0369V44.9158H45.0197V22.5943Z" fill="#177FA4"/>
<path d="M489.361 0.519043H465.824V31.5999C457.877 25.2978 448.009 21.8899 437.855 21.94C420.093 21.94 411.855 32.1456 411.855 48.0545V87.7582C411.855 103.694 420.066 113.873 437.855 113.873C448.242 113.962 458.333 110.419 466.372 103.858V112.454H489.361V0.519043ZM465.824 85.2478C462.075 87.9765 454.002 93.4341 445.217 93.4341C436.432 93.4341 435.337 88.7952 435.337 83.9652V51.6291C435.337 46.9902 436.787 42.324 445.217 42.324C453.646 42.324 462.075 47.7816 465.824 50.5103V85.2478Z" fill="#177FA4"/>
<path d="M401.292 47.644C401.292 31.7079 391.44 21.8843 365.249 21.8843C339.605 21.8843 329.041 31.7079 329.041 47.644V52.7468H350.935V48.3262C350.935 42.0773 354.657 39.2939 364.619 39.2939C374.581 39.2939 378.084 42.8686 378.084 49.3085V60.7422H353.316C335.582 60.7422 326.414 71.3025 326.414 83.2819V91.4682C326.414 103.284 334.624 113.817 352.249 113.817C361.986 113.785 371.395 110.303 378.796 103.993V112.371H401.182L401.292 47.644ZM378.166 87.5115C374.034 90.5405 366.672 95.2067 358.434 95.2067C352.961 95.2067 349.458 93.5967 349.458 88.221V85.4922C349.458 80.8533 351.072 77.3059 358.051 77.3059H378.166V87.5115Z" fill="#177FA4"/>
<path d="M501.898 52.8287H523.792V48.4899C523.792 42.2683 527.486 39.4849 537.476 39.4849C547.465 39.4849 550.94 43.0596 550.94 49.4996V60.9332H526.31C508.548 60.9332 499.407 71.4935 499.407 83.4729V91.6593C499.407 103.448 507.618 114.008 525.242 114.008C534.957 113.917 544.321 110.376 551.652 104.021V112.453H574.039V47.644C574.039 31.7352 564.159 21.8843 537.968 21.8843C512.325 21.8843 501.788 31.7352 501.788 47.644L501.898 52.8287ZM550.995 87.5661C546.863 90.6223 539.528 95.2612 531.263 95.2612C525.79 95.2612 522.287 93.6513 522.287 88.3029V85.4376C522.287 80.7714 523.901 77.3877 530.907 77.3877H550.995V87.5661Z" fill="#177FA4"/>
<path d="M584.49 112.317H608.026V55.0127C615.215 48.7385 624.296 45.0322 633.834 44.4796C635.393 44.4006 636.955 44.4006 638.514 44.4796V21.7761H633.834C620.917 21.7761 612.296 29.7442 607.616 34.7651V23.0859H584.49V112.317Z" fill="#177FA4"/>
<path d="M192.833 23.0842V85.4369C187.302 90.1501 180.367 92.9125 173.101 93.2958C165.575 93.2958 163.413 90.2669 163.413 83.8269V23.0842H139.932V89.7211C139.932 103.665 149.428 113.68 165.739 113.68C175.868 114.011 185.746 110.501 193.381 103.856V103.856V112.261H216.315V23.0842H192.833Z" fill="#177FA4"/>
<path d="M651.104 25.8146V22.9221H665.773V25.8146H660.162V40.1135H656.741V25.8146H651.104ZM673.6 22.9494L678.006 35.2289L682.412 22.9494H687.311V40.1135H684.164V26.2512L679.402 40.0862H676.665L671.876 26.2512V40.0862H668.728V22.9221L673.6 22.9494Z" fill="#177FA4"/>
</svg>
